<svg aria-hidden="true" role="graphics-symbol" viewBox="0 0 20 20" class="notion" style="width: 30px; height: 30px; display: block; fill: inherit; flex-shrink: 0; margin-inline-end: 10px;">

    <!-- 白色纸张背景底板 (保持不变) -->
    <path fill="#fff" d="M12.266.69c.576-.049 1.048-.07 1.486.029.462.105.819.328 1.204.607h.001l3.038 2.135.012.008.334.248c.114.09.224.186.312.288.248.286.33.599.33.937v11.714l-.005.167c-.019.397-.116.837-.433 1.197-.368.418-.9.579-1.461.619h-.009l-11.055.668h-.01c-.375.018-.758.008-1.12-.123a1.9 1.9 0 0 1-.72-.479l-.189-.216-.003-.006-2.239-2.905-.006-.008c-.396-.527-.648-1.02-.705-1.597l-.012-.254V3.307c0-.4.088-.861.388-1.246.316-.404.785-.622 1.332-.67h.01z"/>

    <!-- 黑色轮廓与顶部折角 (移除了原始的N路径) -->
    <path fill="#000" d="
    M12.32 1.437c1.17-.1 1.47-.032 2.205.501l3.039 2.136c.5.367.668.467.668.867v11.715c0 .734-.267 1.168-1.202 1.234l-11.055.667c-.702.034-1.036-.066-1.404-.533L2.333 15.12c-.4-.534-.567-.934-.567-1.401V3.306c0-.6.267-1.101 1.035-1.168z
    M16.561 5.308l-10.854.634c-.4.034-.534.235-.534.668v9.945c0 .535.267.735.868.702l10.388-.601c.6-.033.668-.401.668-.835V5.942c0-.433-.167-.667-.536-.634z
    M12.722 2.372l-9.153.668c-.333.033-.4.2-.267.333l1.303 1.035c.534.433.735.4 1.737.333l9.452-.567c.2 0 .034-.2-.033-.233l-1.57-1.136c-.301-.233-.702-.5-1.47-.433z
  "/>

    <!-- 居中的 tools 文本，带有极微小的倾斜以贴合原本的透视感 -->
    <text x="11.1" y="12.1" font-size="3.2" font-family="-apple-system, BlinkMacSystemFont, 'Segoe UI', Roboto, sans-serif" font-weight="900" text-anchor="middle" fill="#000" transform="rotate(-3 11.1 12.1)">tools</text>

</svg>
